<?xml version="1.0" encoding="UTF-8" standalone="no"?>
<!-- Generator: Fusion 360, Shaper Origin Export Add-In, Version 1.5.0  -->

<svg
   xmlns:shaper="http://www.shapertools.com/namespaces/shaper"
   xmlns:dc="http://purl.org/dc/elements/1.1/"
   xmlns:cc="http://creativecommons.org/ns#"
   xmlns:rdf="http://www.w3.org/1999/02/22-rdf-syntax-ns#"
   xmlns:svg="http://www.w3.org/2000/svg"
   xmlns="http://www.w3.org/2000/svg"
   xmlns:sodipodi="http://sodipodi.sourceforge.net/DTD/sodipodi-0.dtd"
   xmlns:inkscape="http://www.inkscape.org/namespaces/inkscape"
   enable-background="new 0 0 8.1 6.9"
   height="6.9cm"
   shaper:fusionaddin="version:1.5.0"
   version="1.1"
   viewBox="0 0 8.1 6.9"
   width="8.1cm"
   x="0cm"
   xml:space="preserve"
   y="0cm"
   id="svg22"
   sodipodi:docname="Face.svg"
   inkscape:version="0.92.3 (2405546, 2018-03-11)"><metadata
     id="metadata28"><rdf:RDF><cc:Work
         rdf:about=""><dc:format>image/svg+xml</dc:format><dc:type
           rdf:resource="http://purl.org/dc/dcmitype/StillImage" /><dc:title></dc:title></cc:Work></rdf:RDF></metadata><defs
     id="defs26" /><sodipodi:namedview
     pagecolor="#ffffff"
     bordercolor="#666666"
     borderopacity="1"
     objecttolerance="10"
     gridtolerance="10"
     guidetolerance="10"
     inkscape:pageopacity="0"
     inkscape:pageshadow="2"
     inkscape:window-width="2560"
     inkscape:window-height="1027"
     id="namedview24"
     showgrid="false"
     inkscape:zoom="0.90495168"
     inkscape:cx="153.07087"
     inkscape:cy="130.3937"
     inkscape:window-x="-8"
     inkscape:window-y="-8"
     inkscape:window-maximized="1"
     inkscape:current-layer="svg22" /><path
     d="M7.8,0.3 L7.8,6.6 A0.3,0.3 0 0,1 7.5,6.9 L-0,6.9 A0.3,0.3 90 0,1 -0.3,6.6 L-0.3,0.3 A0.3,0.3 180 0,1 -0,-0 L7.5,0 A0.3,0.3 270 0,1 7.8,0.3z"
     fill="rgb(0,0,0)"
     shaper:cutDepth="0.002"
     shaper:pathType="exterior"
     transform="matrix(1,0,0,-1,0.3,6.9)"
     vector-effect="non-scaling-stroke"
     id="path2" /><path
     d="M2.85,0.95 L3.95,0.95 3.95,0.75 2.85,0.75 2.85,0.95z"
     fill="rgb(255,255,255)"
     shaper:cutDepth="0.002"
     shaper:pathType="interior"
     stroke="rgb(0,0,0)"
     transform="matrix(1,0,0,-1,0.3,6.9)"
     vector-effect="non-scaling-stroke"
     id="path4"
     style="stroke:#ff0000;stroke-opacity:1;stroke-width:0.09999999;stroke-miterlimit:4;stroke-dasharray:none" /><path
     d="M2.85,6.15 L3.95,6.15 3.95,5.95 2.85,5.95 2.85,6.15z"
     fill="rgb(255,255,255)"
     shaper:cutDepth="0.002"
     shaper:pathType="interior"
     stroke="rgb(0,0,0)"
     transform="matrix(1,0,0,-1,0.3,6.9)"
     vector-effect="non-scaling-stroke"
     id="path6"
     style="stroke:#ff0000;stroke-opacity:1;stroke-width:0.09999999;stroke-miterlimit:4;stroke-dasharray:none" /><path
     d="M1.35,6.15 A0.35,0.35 90 0,1 1,5.8 L1,1.1 A0.35,0.35 180 0,1 1.35,0.75 L2.15,0.75 A0.35,0.35 270 0,1 2.5,1.1 L2.5,5.8 A0.35,0.35 0 0,1 2.15,6.15 L1.35,6.15z"
     fill="rgb(255,255,255)"
     shaper:cutDepth="0.002"
     shaper:pathType="interior"
     stroke="rgb(0,0,0)"
     transform="matrix(1,0,0,-1,0.3,6.9)"
     vector-effect="non-scaling-stroke"
     id="path8" /><path
     d="M4.1,1.4125 L4.1,2.0125 A0.1,0.1 0 0,1 4,2.1125 L3.7,2.1125 A0.1,0.1 90 0,1 3.6,2.0125 L3.6,1.4125 A0.1,0.1 180 0,1 3.7,1.3125 L4,1.3125 A0.1,0.1 270 0,1 4.1,1.4125z"
     fill="rgb(255,255,255)"
     shaper:cutDepth="0.002"
     shaper:pathType="interior"
     stroke="rgb(0,0,0)"
     transform="matrix(1,0,0,-1,0.3,6.9)"
     vector-effect="non-scaling-stroke"
     id="path10" /><path
     d="M4.1,4.8875 L4.1,5.4875 A0.1,0.1 0 0,1 4,5.5875 L3.7,5.5875 A0.1,0.1 90 0,1 3.6,5.4875 L3.6,4.8875 A0.1,0.1 180 0,1 3.7,4.7875 L4,4.7875 A0.1,0.1 270 0,1 4.1,4.8875z"
     fill="rgb(255,255,255)"
     shaper:cutDepth="0.002"
     shaper:pathType="interior"
     stroke="rgb(0,0,0)"
     transform="matrix(1,0,0,-1,0.3,6.9)"
     vector-effect="non-scaling-stroke"
     id="path12" /><path
     d="M4.85,0.95 L5.15,0.95 A0.1,0.1 270 0,1 5.25,1.05 L5.2500001,2.375 A0.1,0.1 0 0,1 5.1500001,2.475 L4.85,2.475 A0.1,0.1 90 0,1 4.75,2.375 L4.75,1.05 A0.1,0.1 180 0,1 4.85,0.95z"
     fill="rgb(255,255,255)"
     shaper:cutDepth="0.002"
     shaper:pathType="interior"
     stroke="rgb(0,0,0)"
     transform="matrix(1,0,0,-1,0.3,6.9)"
     vector-effect="non-scaling-stroke"
     id="path14" /><path
     d="M4.85,4.425 L5.15,4.425 A0.1,0.1 270 0,1 5.25,4.525 L5.25,5.85 A0.1,0.1 0 0,1 5.15,5.95 L4.85,5.95 A0.1,0.1 90 0,1 4.75,5.85 L4.75,4.525 A0.1,0.1 180 0,1 4.85,4.425z"
     fill="rgb(255,255,255)"
     shaper:cutDepth="0.002"
     shaper:pathType="interior"
     stroke="rgb(0,0,0)"
     transform="matrix(1,0,0,-1,0.3,6.9)"
     vector-effect="non-scaling-stroke"
     id="path16" /><path
     d="M6.4,1.05 L6.4,2.375 A0.1,0.1 0 0,1 6.3,2.475 L6,2.475 A0.1,0.1 90 0,1 5.9,2.375 L5.9,1.05 A0.1,0.1 180 0,1 6,0.95 L6.3,0.95 A0.1,0.1 270 0,1 6.4,1.05z"
     fill="rgb(255,255,255)"
     shaper:cutDepth="0.002"
     shaper:pathType="interior"
     stroke="rgb(0,0,0)"
     transform="matrix(1,0,0,-1,0.3,6.9)"
     vector-effect="non-scaling-stroke"
     id="path18" /><path
     d="M6,4.425 L6.3,4.425 A0.1,0.1 270 0,1 6.4,4.525 L6.4,5.85 A0.1,0.1 0 0,1 6.3,5.95 L6,5.95 A0.1,0.1 90 0,1 5.9,5.85 L5.9,4.525 A0.1,0.1 180 0,1 6,4.425z"
     fill="rgb(255,255,255)"
     shaper:cutDepth="0.002"
     shaper:pathType="interior"
     stroke="rgb(0,0,0)"
     transform="matrix(1,0,0,-1,0.3,6.9)"
     vector-effect="non-scaling-stroke"
     id="path20" /></svg>